<svg width="273" height="58" viewBox="0 0 273 58" fill="none" xmlns="http://www.w3.org/2000/svg">
<mask id="path-1-outside-1_164_445" maskUnits="userSpaceOnUse" x="-1" y="-1" width="275" height="60" fill="black">
<rect fill="white" x="-1" y="-1" width="275" height="60"/>
<path d="M30.76 57.96C26.3333 57.96 22.2267 57.24 18.44 55.8C14.7067 54.36 11.4533 52.3333 8.68 49.72C5.96 47.1067 3.82667 44.04 2.28 40.52C0.786667 37 0.0400002 33.16 0.0400002 29C0.0400002 24.84 0.786667 21 2.28 17.48C3.82667 13.96 5.98667 10.8933 8.76 8.28C11.5333 5.66666 14.7867 3.64 18.52 2.2C22.2533 0.759998 26.3067 0.039999 30.68 0.039999C35.1067 0.039999 39.16 0.759998 42.84 2.2C46.5733 3.64 49.8 5.66666 52.52 8.28C55.2933 10.8933 57.4533 13.96 59 17.48C60.5467 20.9467 61.32 24.7867 61.32 29C61.32 33.16 60.5467 37.0267 59 40.6C57.4533 44.12 55.2933 47.1867 52.52 49.8C49.8 52.36 46.5733 54.36 42.84 55.8C39.16 57.24 35.1333 57.96 30.76 57.96ZM30.68 46.92C33.1867 46.92 35.48 46.4933 37.56 45.64C39.6933 44.7867 41.56 43.56 43.16 41.96C44.76 40.36 45.9867 38.4667 46.84 36.28C47.7467 34.0933 48.2 31.6667 48.2 29C48.2 26.3333 47.7467 23.9067 46.84 21.72C45.9867 19.5333 44.76 17.64 43.16 16.04C41.6133 14.44 39.7733 13.2133 37.64 12.36C35.5067 11.5067 33.1867 11.08 30.68 11.08C28.1733 11.08 25.8533 11.5067 23.72 12.36C21.64 13.2133 19.8 14.44 18.2 16.04C16.6 17.64 15.3467 19.5333 14.44 21.72C13.5867 23.9067 13.16 26.3333 13.16 29C13.16 31.6133 13.5867 34.04 14.44 36.28C15.3467 38.4667 16.5733 40.36 18.12 41.96C19.72 43.56 21.5867 44.7867 23.72 45.64C25.8533 46.4933 28.1733 46.92 30.68 46.92ZM132.36 0.999996H145.32V57H132.36V0.999996ZM106.92 57H93.96V0.999996H106.92V57ZM133.32 34.04H105.96V23.08H133.32V34.04ZM153.031 57L177.991 0.999996H190.791L215.831 57H202.231L181.751 7.56H186.871L166.311 57H153.031ZM165.511 45L168.951 35.16H197.751L201.271 45H165.511ZM248.956 57.96C244.636 57.96 240.609 57.2667 236.876 55.88C233.196 54.44 229.996 52.4133 227.276 49.8C224.556 47.1867 222.422 44.12 220.876 40.6C219.382 37.08 218.636 33.2133 218.636 29C218.636 24.7867 219.382 20.92 220.876 17.4C222.422 13.88 224.556 10.8133 227.276 8.2C230.049 5.58666 233.276 3.58666 236.956 2.2C240.636 0.759998 244.662 0.039999 249.036 0.039999C253.889 0.039999 258.262 0.893332 262.156 2.6C266.102 4.25333 269.409 6.70666 272.076 9.96L263.756 17.64C261.836 15.4533 259.702 13.8267 257.356 12.76C255.009 11.64 252.449 11.08 249.676 11.08C247.062 11.08 244.662 11.5067 242.476 12.36C240.289 13.2133 238.396 14.44 236.796 16.04C235.196 17.64 233.942 19.5333 233.036 21.72C232.182 23.9067 231.756 26.3333 231.756 29C231.756 31.6667 232.182 34.0933 233.036 36.28C233.942 38.4667 235.196 40.36 236.796 41.96C238.396 43.56 240.289 44.7867 242.476 45.64C244.662 46.4933 247.062 46.92 249.676 46.92C252.449 46.92 255.009 46.3867 257.356 45.32C259.702 44.2 261.836 42.52 263.756 40.28L272.076 47.96C269.409 51.2133 266.102 53.6933 262.156 55.4C258.262 57.1067 253.862 57.96 248.956 57.96Z"/>
</mask>
<path d="M30.76 57.96C26.3333 57.96 22.2267 57.24 18.44 55.8C14.7067 54.36 11.4533 52.3333 8.68 49.72C5.96 47.1067 3.82667 44.04 2.28 40.52C0.786667 37 0.0400002 33.16 0.0400002 29C0.0400002 24.84 0.786667 21 2.28 17.48C3.82667 13.96 5.98667 10.8933 8.76 8.28C11.5333 5.66666 14.7867 3.64 18.52 2.2C22.2533 0.759998 26.3067 0.039999 30.68 0.039999C35.1067 0.039999 39.16 0.759998 42.84 2.2C46.5733 3.64 49.8 5.66666 52.52 8.28C55.2933 10.8933 57.4533 13.96 59 17.48C60.5467 20.9467 61.32 24.7867 61.32 29C61.32 33.16 60.5467 37.0267 59 40.6C57.4533 44.12 55.2933 47.1867 52.52 49.8C49.8 52.36 46.5733 54.36 42.84 55.8C39.16 57.24 35.1333 57.96 30.76 57.96ZM30.68 46.92C33.1867 46.92 35.48 46.4933 37.56 45.64C39.6933 44.7867 41.56 43.56 43.16 41.96C44.76 40.36 45.9867 38.4667 46.84 36.28C47.7467 34.0933 48.2 31.6667 48.2 29C48.2 26.3333 47.7467 23.9067 46.84 21.72C45.9867 19.5333 44.76 17.64 43.16 16.04C41.6133 14.44 39.7733 13.2133 37.64 12.36C35.5067 11.5067 33.1867 11.08 30.68 11.08C28.1733 11.08 25.8533 11.5067 23.72 12.36C21.64 13.2133 19.8 14.44 18.2 16.04C16.6 17.64 15.3467 19.5333 14.44 21.72C13.5867 23.9067 13.16 26.3333 13.16 29C13.16 31.6133 13.5867 34.04 14.44 36.28C15.3467 38.4667 16.5733 40.36 18.12 41.96C19.72 43.56 21.5867 44.7867 23.72 45.64C25.8533 46.4933 28.1733 46.92 30.68 46.92ZM132.36 0.999996H145.32V57H132.36V0.999996ZM106.92 57H93.96V0.999996H106.92V57ZM133.32 34.04H105.96V23.08H133.32V34.04ZM153.031 57L177.991 0.999996H190.791L215.831 57H202.231L181.751 7.56H186.871L166.311 57H153.031ZM165.511 45L168.951 35.16H197.751L201.271 45H165.511ZM248.956 57.96C244.636 57.96 240.609 57.2667 236.876 55.88C233.196 54.44 229.996 52.4133 227.276 49.8C224.556 47.1867 222.422 44.12 220.876 40.6C219.382 37.08 218.636 33.2133 218.636 29C218.636 24.7867 219.382 20.92 220.876 17.4C222.422 13.88 224.556 10.8133 227.276 8.2C230.049 5.58666 233.276 3.58666 236.956 2.2C240.636 0.759998 244.662 0.039999 249.036 0.039999C253.889 0.039999 258.262 0.893332 262.156 2.6C266.102 4.25333 269.409 6.70666 272.076 9.96L263.756 17.64C261.836 15.4533 259.702 13.8267 257.356 12.76C255.009 11.64 252.449 11.08 249.676 11.08C247.062 11.08 244.662 11.5067 242.476 12.36C240.289 13.2133 238.396 14.44 236.796 16.04C235.196 17.64 233.942 19.5333 233.036 21.72C232.182 23.9067 231.756 26.3333 231.756 29C231.756 31.6667 232.182 34.0933 233.036 36.28C233.942 38.4667 235.196 40.36 236.796 41.96C238.396 43.56 240.289 44.7867 242.476 45.64C244.662 46.4933 247.062 46.92 249.676 46.92C252.449 46.92 255.009 46.3867 257.356 45.32C259.702 44.2 261.836 42.52 263.756 40.28L272.076 47.96C269.409 51.2133 266.102 53.6933 262.156 55.4C258.262 57.1067 253.862 57.96 248.956 57.96Z" fill="white" fill-opacity="0.17"/>
<path d="M18.44 55.8L18.0801 56.733L18.0846 56.7347L18.44 55.8ZM8.68 49.72L7.98714 50.4411L7.9942 50.4478L8.68 49.72ZM2.28 40.52L1.35934 40.9106L1.36448 40.9223L2.28 40.52ZM2.28 17.48L1.36441 17.0777L1.35942 17.0894L2.28 17.48ZM8.76 8.28L8.0742 7.55221L8.76 8.28ZM18.52 2.2L18.1601 1.26699L18.52 2.2ZM42.84 2.2L42.4756 3.13125L42.4801 3.133L42.84 2.2ZM52.52 8.28L51.8271 9.00114L51.8342 9.00779L52.52 8.28ZM59 17.48L58.0845 17.8823L58.0868 17.8874L59 17.48ZM59 40.6L59.9155 41.0023L59.9177 40.9972L59 40.6ZM52.52 49.8L53.2054 50.5282L53.2058 50.5278L52.52 49.8ZM42.84 55.8L42.4801 54.867L42.4756 54.8688L42.84 55.8ZM37.56 45.64L37.1886 44.7115L37.1804 44.7148L37.56 45.64ZM43.16 41.96L42.4529 41.2529L43.16 41.96ZM46.84 36.28L45.9163 35.897L45.9122 35.9067L45.9084 35.9165L46.84 36.28ZM46.84 21.72L45.9084 22.0835L45.9122 22.0933L45.9163 22.103L46.84 21.72ZM43.16 16.04L42.441 16.735L42.4469 16.7411L42.4529 16.7471L43.16 16.04ZM37.64 12.36L37.2686 13.2885L37.64 12.36ZM23.72 12.36L23.3486 11.4315L23.3404 11.4348L23.72 12.36ZM18.2 16.04L18.9071 16.7471L18.2 16.04ZM14.44 21.72L13.5163 21.337L13.5122 21.3467L13.5084 21.3565L14.44 21.72ZM14.44 36.28L13.5055 36.636L13.5107 36.6496L13.5163 36.663L14.44 36.28ZM18.12 41.96L17.401 42.655L17.4069 42.6611L17.4129 42.6671L18.12 41.96ZM23.72 45.64L24.0914 44.7115L23.72 45.64ZM30.76 56.96C26.4435 56.96 22.4585 56.2583 18.7954 54.8653L18.0846 56.7347C21.9948 58.2217 26.2231 58.96 30.76 58.96V56.96ZM18.7999 54.867C15.1813 53.4713 12.0401 51.5123 9.3658 48.9922L7.9942 50.4478C10.8665 53.1544 14.232 55.2487 18.0801 56.733L18.7999 54.867ZM9.37283 48.9989C6.74906 46.478 4.69058 43.5203 3.19552 40.1177L1.36448 40.9223C2.96276 44.5597 5.17095 47.7353 7.98717 50.4411L9.37283 48.9989ZM3.20058 40.1294C1.76411 36.7435 1.04 33.0377 1.04 29H-0.96C-0.96 33.2823 -0.19078 37.2565 1.35942 40.9105L3.20058 40.1294ZM1.04 29C1.04 24.9623 1.76411 21.2565 3.20058 17.8705L1.35942 17.0894C-0.19078 20.7435 -0.96 24.7177 -0.96 29H1.04ZM3.19552 17.8823C4.68872 14.484 6.771 11.5283 9.4458 9.00779L8.0742 7.55221C5.20234 10.2584 2.96461 13.436 1.36448 17.0777L3.19552 17.8823ZM9.4458 9.00779C12.1201 6.48774 15.2613 4.52873 18.8799 3.133L18.1601 1.26699C14.312 2.75126 10.9465 4.84558 8.0742 7.55221L9.4458 9.00779ZM18.8799 3.133C22.4882 1.74123 26.4183 1.04 30.68 1.04V-0.960001C26.1951 -0.960001 22.0185 -0.221235 18.1601 1.26699L18.8799 3.133ZM30.68 1.04C34.9969 1.04 38.9249 1.74182 42.4756 3.13124L43.2044 1.26875C39.3951 -0.221821 35.2164 -0.960001 30.68 -0.960001V1.04ZM42.4801 3.133C46.0972 4.52814 49.2087 6.48533 51.8272 9.0011L53.2128 7.5589C50.3913 4.84799 47.0495 2.75186 43.1999 1.26699L42.4801 3.133ZM51.8342 9.00779C54.509 11.5283 56.5913 14.484 58.0845 17.8823L59.9155 17.0777C58.3154 13.436 56.0777 10.2584 53.2058 7.55221L51.8342 9.00779ZM58.0868 17.8874C59.5702 21.2124 60.32 24.9115 60.32 29H62.32C62.32 24.6618 61.5231 20.6809 59.9132 17.0726L58.0868 17.8874ZM60.32 29C60.32 33.0328 59.571 36.7633 58.0823 40.2028L59.9177 40.9972C61.5223 37.2901 62.32 33.2872 62.32 29H60.32ZM58.0845 40.1977C56.5913 43.596 54.509 46.5517 51.8342 49.0722L53.2058 50.5278C56.0777 47.8216 58.3154 44.644 59.9155 41.0023L58.0845 40.1977ZM51.8346 49.0718C49.2154 51.5369 46.1014 53.4702 42.4801 54.867L43.1999 56.733C47.0452 55.2498 50.3846 53.1831 53.2054 50.5282L51.8346 49.0718ZM42.4756 54.8688C38.9235 56.2587 35.0219 56.96 30.76 56.96V58.96C35.2447 58.96 39.3965 58.2213 43.2044 56.7312L42.4756 54.8688ZM30.68 47.92C33.3019 47.92 35.726 47.4733 37.9396 46.5652L37.1804 44.7148C35.234 45.5134 33.0714 45.92 30.68 45.92V47.92ZM37.9314 46.5685C40.1885 45.6656 42.1698 44.3644 43.8671 42.6671L42.4529 41.2529C40.9502 42.7556 39.1982 43.9077 37.1886 44.7115L37.9314 46.5685ZM43.8671 42.6671C45.5686 40.9657 46.8699 38.9541 47.7716 36.6435L45.9084 35.9165C45.1034 37.9792 43.9515 39.7543 42.4529 41.2529L43.8671 42.6671ZM47.7637 36.663C48.7267 34.3405 49.2 31.7815 49.2 29H47.2C47.2 31.5518 46.7666 33.8462 45.9163 35.897L47.7637 36.663ZM49.2 29C49.2 26.2185 48.7267 23.6595 47.7637 21.337L45.9163 22.103C46.7666 24.1538 47.2 26.4482 47.2 29H49.2ZM47.7716 21.3565C46.8699 19.0459 45.5686 17.0343 43.8671 15.3329L42.4529 16.7471C43.9515 18.2457 45.1034 20.0208 45.9084 22.0835L47.7716 21.3565ZM43.879 15.345C42.231 13.6402 40.2714 12.3355 38.0114 11.4315L37.2686 13.2885C39.2753 14.0911 40.9957 15.2398 42.441 16.735L43.879 15.345ZM38.0114 11.4315C35.7496 10.5268 33.3023 10.08 30.68 10.08V12.08C33.0711 12.08 35.2637 12.4865 37.2686 13.2885L38.0114 11.4315ZM30.68 10.08C28.0577 10.08 25.6104 10.5268 23.3486 11.4315L24.0914 13.2885C26.0963 12.4865 28.2889 12.08 30.68 12.08V10.08ZM23.3404 11.4348C21.1371 12.3388 19.1859 13.6398 17.4929 15.3329L18.9071 16.7471C20.4141 15.2401 22.1429 14.0879 24.0996 13.2852L23.3404 11.4348ZM17.4929 15.3329C15.7959 17.0299 14.4708 19.0348 13.5163 21.337L15.3637 22.103C16.2225 20.0318 17.4041 18.2501 18.9071 16.7471L17.4929 15.3329ZM13.5084 21.3565C12.6041 23.6737 12.16 26.2257 12.16 29H14.16C14.16 26.4409 14.5692 24.1397 15.3716 22.0835L13.5084 21.3565ZM12.16 29C12.16 31.724 12.6051 34.2725 13.5055 36.636L15.3745 35.924C14.5682 33.8075 14.16 31.5027 14.16 29H12.16ZM13.5163 36.663C14.4679 38.9581 15.7617 40.9592 17.401 42.655L18.839 41.265C17.385 39.7608 16.2254 37.9752 15.3637 35.897L13.5163 36.663ZM17.4129 42.6671C19.1102 44.3644 21.0915 45.6656 23.3486 46.5685L24.0914 44.7115C22.0818 43.9077 20.3298 42.7556 18.8271 41.2529L17.4129 42.6671ZM23.3486 46.5685C25.6104 47.4732 28.0577 47.92 30.68 47.92V45.92C28.2889 45.92 26.0963 45.5135 24.0914 44.7115L23.3486 46.5685ZM132.36 0.999996V-3.8147e-06H131.36V0.999996H132.36ZM145.32 0.999996H146.32V-3.8147e-06H145.32V0.999996ZM145.32 57V58H146.32V57H145.32ZM132.36 57H131.36V58H132.36V57ZM106.92 57V58H107.92V57H106.92ZM93.96 57H92.96V58H93.96V57ZM93.96 0.999996V-3.8147e-06H92.96V0.999996H93.96ZM106.92 0.999996H107.92V-3.8147e-06H106.92V0.999996ZM133.32 34.04V35.04H134.32V34.04H133.32ZM105.96 34.04H104.96V35.04H105.96V34.04ZM105.96 23.08V22.08H104.96V23.08H105.96ZM133.32 23.08H134.32V22.08H133.32V23.08ZM132.36 2H145.32V-3.8147e-06H132.36V2ZM144.32 0.999996V57H146.32V0.999996H144.32ZM145.32 56H132.36V58H145.32V56ZM133.36 57V0.999996H131.36V57H133.36ZM106.92 56H93.96V58H106.92V56ZM94.96 57V0.999996H92.96V57H94.96ZM93.96 2H106.92V-3.8147e-06H93.96V2ZM105.92 0.999996V57H107.92V0.999996H105.92ZM133.32 33.04H105.96V35.04H133.32V33.04ZM106.96 34.04V23.08H104.96V34.04H106.96ZM105.96 24.08H133.32V22.08H105.96V24.08ZM132.32 23.08V34.04H134.32V23.08H132.32ZM153.031 57L152.117 56.5929L151.49 58H153.031V57ZM177.991 0.999996V-3.8147e-06H177.342L177.077 0.59289L177.991 0.999996ZM190.791 0.999996L191.704 0.591803L191.439 -3.8147e-06H190.791V0.999996ZM215.831 57V58H217.373L216.744 56.5918L215.831 57ZM202.231 57L201.307 57.3827L201.562 58H202.231V57ZM181.751 7.56V6.56H180.254L180.827 7.9427L181.751 7.56ZM186.871 7.56L187.794 7.94398L188.37 6.56H186.871V7.56ZM166.311 57V58H166.978L167.234 57.384L166.311 57ZM165.511 45L164.567 44.67L164.102 46H165.511V45ZM168.951 35.16V34.16H168.241L168.007 34.83L168.951 35.16ZM197.751 35.16L198.692 34.8232L198.455 34.16H197.751V35.16ZM201.271 45V46H202.69L202.212 44.6632L201.271 45ZM153.944 57.4071L178.904 1.4071L177.077 0.59289L152.117 56.5929L153.944 57.4071ZM177.991 2H190.791V-3.8147e-06H177.991V2ZM189.878 1.40819L214.918 57.4082L216.744 56.5918L191.704 0.591803L189.878 1.40819ZM215.831 56H202.231V58H215.831V56ZM203.154 56.6173L182.674 7.17729L180.827 7.9427L201.307 57.3827L203.154 56.6173ZM181.751 8.56H186.871V6.56H181.751V8.56ZM185.947 7.17602L165.387 56.616L167.234 57.384L187.794 7.94398L185.947 7.17602ZM166.311 56H153.031V58H166.311V56ZM166.455 45.33L169.895 35.49L168.007 34.83L164.567 44.67L166.455 45.33ZM168.951 36.16H197.751V34.16H168.951V36.16ZM196.809 35.4968L200.329 45.3368L202.212 44.6632L198.692 34.8232L196.809 35.4968ZM201.271 44H165.511V46H201.271V44ZM236.876 55.88L236.511 56.8112L236.519 56.8144L236.527 56.8174L236.876 55.88ZM227.276 49.8L226.583 50.5211L227.276 49.8ZM220.876 40.6L219.955 40.9906L219.96 41.0023L220.876 40.6ZM220.876 17.4L219.96 16.9977L219.955 17.0094L220.876 17.4ZM227.276 8.2L226.59 7.47218L226.583 7.47889L227.276 8.2ZM236.956 2.2L237.308 3.13584L237.32 3.13124L236.956 2.2ZM262.156 2.6L261.754 3.51587L261.762 3.51917L261.769 3.52234L262.156 2.6ZM272.076 9.96L272.754 10.6948L273.447 10.0553L272.849 9.32607L272.076 9.96ZM263.756 17.64L263.004 18.2998L263.681 19.0702L264.434 18.3748L263.756 17.64ZM257.356 12.76L256.925 13.6625L256.933 13.6665L256.942 13.6704L257.356 12.76ZM236.796 16.04L237.503 16.7471L236.796 16.04ZM233.036 21.72L232.112 21.337L232.108 21.3467L232.104 21.3565L233.036 21.72ZM233.036 36.28L232.104 36.6435L232.108 36.6533L232.112 36.663L233.036 36.28ZM236.796 41.96L236.089 42.6671L236.796 41.96ZM257.356 45.32L257.769 46.2304L257.778 46.2265L257.786 46.2225L257.356 45.32ZM263.756 40.28L264.434 39.5452L263.672 38.8415L262.996 39.6292L263.756 40.28ZM272.076 47.96L272.849 48.5939L273.447 47.8647L272.754 47.2252L272.076 47.96ZM262.156 55.4L261.759 54.4821L261.754 54.4841L262.156 55.4ZM248.956 56.96C244.744 56.96 240.837 56.2845 237.224 54.9426L236.527 56.8174C240.381 58.2489 244.527 58.96 248.956 58.96V56.96ZM237.24 54.9488C233.676 53.5543 230.589 51.597 227.968 49.0789L226.583 50.5211C229.402 53.2297 232.715 55.3257 236.511 56.8112L237.24 54.9488ZM227.968 49.0789C225.345 46.558 223.286 43.6003 221.791 40.1977L219.96 41.0023C221.558 44.6397 223.767 47.8153 226.583 50.5211L227.968 49.0789ZM221.796 40.2094C220.36 36.825 219.636 33.0929 219.636 29H217.636C217.636 33.3338 218.404 37.335 219.955 40.9905L221.796 40.2094ZM219.636 29C219.636 24.9071 220.36 21.175 221.796 17.7905L219.955 17.0094C218.404 20.665 217.636 24.6662 217.636 29H219.636ZM221.791 17.8023C223.286 14.3997 225.345 11.442 227.968 8.9211L226.583 7.47889C223.767 10.1847 221.558 13.3603 219.96 16.9977L221.791 17.8023ZM227.961 8.92779C230.635 6.40804 233.748 4.47734 237.308 3.13577L236.603 1.26423C232.803 2.69599 229.462 4.76529 226.59 7.47221L227.961 8.92779ZM237.32 3.13124C240.872 1.74128 244.774 1.04 249.036 1.04V-0.960001C244.551 -0.960001 240.399 -0.221287 236.591 1.26875L237.32 3.13124ZM249.036 1.04C253.77 1.04 258.004 1.87202 261.754 3.51587L262.557 1.68413C258.52 -0.0853519 254.008 -0.960001 249.036 -0.960001V1.04ZM261.769 3.52234C265.568 5.1137 268.741 7.46913 271.302 10.5939L272.849 9.32607C270.077 5.9442 266.637 3.39296 262.542 1.67766L261.769 3.52234ZM271.397 9.2252L263.077 16.9052L264.434 18.3748L272.754 10.6948L271.397 9.2252ZM264.507 16.9802C262.506 14.7008 260.261 12.9821 257.769 11.8496L256.942 13.6704C259.144 14.6713 261.166 16.2059 263.004 18.2998L264.507 16.9802ZM257.786 11.8575C255.296 10.6691 252.588 10.08 249.676 10.08V12.08C252.31 12.08 254.722 12.6109 256.925 13.6625L257.786 11.8575ZM249.676 10.08C246.952 10.08 244.427 10.525 242.112 11.4284L242.839 13.2916C244.898 12.4883 247.173 12.08 249.676 12.08V10.08ZM242.112 11.4284C239.802 12.3301 237.79 13.6315 236.089 15.3329L237.503 16.7471C239.001 15.2485 240.776 14.0966 242.839 13.2916L242.112 11.4284ZM236.089 15.3329C234.391 17.0299 233.066 19.0348 232.112 21.337L233.959 22.103C234.818 20.0318 236 18.2501 237.503 16.7471L236.089 15.3329ZM232.104 21.3565C231.2 23.6737 230.756 26.2257 230.756 29H232.756C232.756 26.4409 233.165 24.1397 233.967 22.0835L232.104 21.3565ZM230.756 29C230.756 31.7743 231.2 34.3263 232.104 36.6435L233.967 35.9165C233.165 33.8603 232.756 31.5591 232.756 29H230.756ZM232.112 36.663C233.066 38.9652 234.391 40.9701 236.089 42.6671L237.503 41.2529C236 39.7499 234.818 37.9681 233.959 35.897L232.112 36.663ZM236.089 42.6671C237.79 44.3685 239.802 45.6699 242.112 46.5716L242.839 44.7084C240.776 43.9034 239.001 42.7514 237.503 41.2529L236.089 42.6671ZM242.112 46.5716C244.427 47.475 246.952 47.92 249.676 47.92V45.92C247.173 45.92 244.898 45.5117 242.839 44.7084L242.112 46.5716ZM249.676 47.92C252.581 47.92 255.283 47.3605 257.769 46.2304L256.942 44.4096C254.735 45.4128 252.317 45.92 249.676 45.92V47.92ZM257.786 46.2225C260.275 45.0348 262.516 43.2624 264.515 40.9308L262.996 39.6292C261.155 41.7776 259.13 43.3652 256.925 44.4175L257.786 46.2225ZM263.077 41.0148L271.397 48.6948L272.754 47.2252L264.434 39.5452L263.077 41.0148ZM271.302 47.3261C268.739 50.4533 265.562 52.8373 261.759 54.4821L262.553 56.3179C266.642 54.5494 270.079 51.9734 272.849 48.5939L271.302 47.3261ZM261.754 54.4841C258.005 56.1274 253.745 56.96 248.956 56.96V58.96C253.979 58.96 258.519 58.0859 262.557 56.3159L261.754 54.4841Z" fill="black" mask="url(#path-1-outside-1_164_445)"/>
</svg>
