<svg width="719" height="58" viewBox="0 0 719 58" fill="none" xmlns="http://www.w3.org/2000/svg">
<mask id="path-1-outside-1_164_433" maskUnits="userSpaceOnUse" x="-1" y="-1" width="721" height="60" fill="black">
<rect fill="white" x="-1" y="-1" width="721" height="60"/>
<path d="M0.96 57V0.999996H25.2C30.2133 0.999996 34.5333 1.82666 38.16 3.48C41.7867 5.08 44.5867 7.4 46.56 10.44C48.5333 13.48 49.52 17.1067 49.52 21.32C49.52 25.48 48.5333 29.08 46.56 32.12C44.5867 35.16 41.7867 37.5067 38.16 39.16C34.5333 40.76 30.2133 41.56 25.2 41.56H8.16L13.92 35.72V57H0.96ZM13.92 37.16L8.16 31H24.48C28.48 31 31.4667 30.1467 33.44 28.44C35.4133 26.7333 36.4 24.36 36.4 21.32C36.4 18.2267 35.4133 15.8267 33.44 14.12C31.4667 12.4133 28.48 11.56 24.48 11.56H8.16L13.92 5.4V37.16ZM48.9369 57L73.8969 0.999996H86.6969L111.737 57H98.1369L77.6569 7.56H82.7769L62.2169 57H48.9369ZM61.4169 45L64.8569 35.16H93.6569L97.1769 45H61.4169ZM119.163 57V0.999996H164.363V11.32H132.043V22.84H147.563C154.336 22.84 159.483 24.2533 163.003 27.08C166.576 29.9067 168.363 34.0133 168.363 39.4C168.363 44.9467 166.39 49.2667 162.443 52.36C158.496 55.4533 152.923 57 145.723 57H119.163ZM132.043 47.4H145.003C148.31 47.4 150.843 46.76 152.603 45.48C154.363 44.1467 155.243 42.2267 155.243 39.72C155.243 34.8133 151.83 32.36 145.003 32.36H132.043V47.4ZM205.026 57.96C200.599 57.96 196.492 57.24 192.706 55.8C188.972 54.36 185.719 52.3333 182.946 49.72C180.226 47.1067 178.092 44.04 176.546 40.52C175.052 37 174.306 33.16 174.306 29C174.306 24.84 175.052 21 176.546 17.48C178.092 13.96 180.252 10.8933 183.026 8.28C185.799 5.66666 189.052 3.64 192.786 2.2C196.519 0.759998 200.572 0.039999 204.946 0.039999C209.372 0.039999 213.426 0.759998 217.106 2.2C220.839 3.64 224.066 5.66666 226.786 8.28C229.559 10.8933 231.719 13.96 233.266 17.48C234.812 20.9467 235.586 24.7867 235.586 29C235.586 33.16 234.812 37.0267 233.266 40.6C231.719 44.12 229.559 47.1867 226.786 49.8C224.066 52.36 220.839 54.36 217.106 55.8C213.426 57.24 209.399 57.96 205.026 57.96ZM204.946 46.92C207.452 46.92 209.746 46.4933 211.826 45.64C213.959 44.7867 215.826 43.56 217.426 41.96C219.026 40.36 220.252 38.4667 221.106 36.28C222.012 34.0933 222.466 31.6667 222.466 29C222.466 26.3333 222.012 23.9067 221.106 21.72C220.252 19.5333 219.026 17.64 217.426 16.04C215.879 14.44 214.039 13.2133 211.906 12.36C209.772 11.5067 207.452 11.08 204.946 11.08C202.439 11.08 200.119 11.5067 197.986 12.36C195.906 13.2133 194.066 14.44 192.466 16.04C190.866 17.64 189.612 19.5333 188.706 21.72C187.852 23.9067 187.426 26.3333 187.426 29C187.426 31.6133 187.852 34.04 188.706 36.28C189.612 38.4667 190.839 40.36 192.386 41.96C193.986 43.56 195.852 44.7867 197.986 45.64C200.119 46.4933 202.439 46.92 204.946 46.92ZM256.868 57V8.6L259.828 11.56H239.028V0.999996H287.588V11.56H266.788L269.668 8.6V57H256.868ZM286.593 57L311.553 0.999996H324.353L349.393 57H335.793L315.313 7.56H320.433L299.873 57H286.593ZM299.073 45L302.513 35.16H331.313L334.833 45H299.073ZM405.956 57.96C401.636 57.96 397.609 57.2667 393.876 55.88C390.196 54.44 386.996 52.4133 384.276 49.8C381.556 47.1867 379.422 44.12 377.876 40.6C376.382 37.08 375.636 33.2133 375.636 29C375.636 24.7867 376.382 20.92 377.876 17.4C379.422 13.88 381.556 10.8133 384.276 8.2C387.049 5.58666 390.276 3.58666 393.956 2.2C397.636 0.759998 401.662 0.039999 406.036 0.039999C410.889 0.039999 415.262 0.893332 419.156 2.6C423.102 4.25333 426.409 6.70666 429.076 9.96L420.756 17.64C418.836 15.4533 416.702 13.8267 414.356 12.76C412.009 11.64 409.449 11.08 406.676 11.08C404.062 11.08 401.662 11.5067 399.476 12.36C397.289 13.2133 395.396 14.44 393.796 16.04C392.196 17.64 390.942 19.5333 390.036 21.72C389.182 23.9067 388.756 26.3333 388.756 29C388.756 31.6667 389.182 34.0933 390.036 36.28C390.942 38.4667 392.196 40.36 393.796 41.96C395.396 43.56 397.289 44.7867 399.476 45.64C401.662 46.4933 404.062 46.92 406.676 46.92C409.449 46.92 412.009 46.3867 414.356 45.32C416.702 44.2 418.836 42.52 420.756 40.28L429.076 47.96C426.409 51.2133 423.102 53.6933 419.156 55.4C415.262 57.1067 410.862 57.96 405.956 57.96ZM498.579 0.999996H511.539V57H498.579V0.999996ZM473.139 57H460.179V0.999996H473.139V57ZM499.539 34.04H472.179V23.08H499.539V34.04ZM519.249 57L544.209 0.999996H557.009L582.049 57H568.449L547.969 7.56H553.089L532.529 57H519.249ZM531.729 45L535.169 35.16H563.969L567.489 45H531.729ZM589.476 57V0.999996H600.196L624.036 40.52H618.356L641.796 0.999996H652.516L652.596 57H640.436L640.356 19.64H642.676L623.876 51.08H618.116L598.916 19.64H601.636V57H589.476ZM666.507 57V0.999996H679.387V37.48L706.107 0.999996H718.267V57H705.467V20.6L678.747 57H666.507Z"/>
</mask>
<path d="M0.960001 57H-0.0399995V58H0.960001V57ZM0.960001 0.999996V-3.8147e-06H-0.0399995V0.999996H0.960001ZM38.16 3.48L37.7452 4.38997L37.7564 4.39491L38.16 3.48ZM46.56 10.44L45.7212 10.9845L46.56 10.44ZM38.16 39.16L38.5637 40.075L38.5748 40.0699L38.16 39.16ZM8.16 41.56L7.44803 40.8578L5.76914 42.56H8.16V41.56ZM13.92 35.72H14.92V33.282L13.208 35.0178L13.92 35.72ZM13.92 57V58H14.92V57H13.92ZM13.92 37.16L13.1896 37.843L14.92 39.6936V37.16H13.92ZM8.16 31V30H5.85587L7.42958 31.683L8.16 31ZM8.16 11.56L7.42958 10.877L5.85587 12.56H8.16V11.56ZM13.92 5.4H14.92V2.86641L13.1896 4.717L13.92 5.4ZM1.96 57V0.999996H-0.0399995V57H1.96ZM0.960001 2H25.2V-3.8147e-06H0.960001V2ZM25.2 2C30.106 2 34.2778 2.80917 37.7452 4.38991L38.5748 2.57009C34.7889 0.844154 30.3207 -3.8147e-06 25.2 -3.8147e-06V2ZM37.7564 4.39491C41.2224 5.92405 43.8637 8.12287 45.7212 10.9845L47.3988 9.89553C45.3096 6.67712 42.3509 4.23594 38.5636 2.56508L37.7564 4.39491ZM45.7212 10.9845C47.5731 13.8374 48.52 17.2678 48.52 21.32H50.52C50.52 16.9455 49.4935 13.1226 47.3988 9.89553L45.7212 10.9845ZM48.52 21.32C48.52 25.316 47.5744 28.7206 45.7212 31.5755L47.3988 32.6645C49.4922 29.4394 50.52 25.644 50.52 21.32H48.52ZM45.7212 31.5755C43.8618 34.4401 41.2165 36.6676 37.7452 38.2501L38.5748 40.0699C42.3568 38.3458 45.3116 35.8799 47.3988 32.6645L45.7212 31.5755ZM37.7564 38.2451C34.2858 39.7762 30.1099 40.56 25.2 40.56V42.56C30.3168 42.56 34.7809 41.7438 38.5636 40.0749L37.7564 38.2451ZM25.2 40.56H8.16V42.56H25.2V40.56ZM8.87197 42.2622L14.632 36.4222L13.208 35.0178L7.44803 40.8578L8.87197 42.2622ZM12.92 35.72V57H14.92V35.72H12.92ZM13.92 56H0.960001V58H13.92V56ZM14.6504 36.477L8.89042 30.317L7.42958 31.683L13.1896 37.843L14.6504 36.477ZM8.16 32H24.48V30H8.16V32ZM24.48 32C28.5974 32 31.8638 31.1253 34.0942 29.1964L32.7859 27.6836C31.0695 29.1681 28.3626 30 24.48 30V32ZM34.0942 29.1964C36.3243 27.2676 37.4 24.5973 37.4 21.32H35.4C35.4 24.1227 34.5024 26.1991 32.7859 27.6836L34.0942 29.1964ZM37.4 21.32C37.4 17.9956 36.3283 15.2959 34.0942 13.3636L32.7859 14.8764C34.4983 16.3574 35.4 18.4577 35.4 21.32H37.4ZM34.0942 13.3636C31.8638 11.4347 28.5974 10.56 24.48 10.56V12.56C28.3626 12.56 31.0695 13.3919 32.7859 14.8764L34.0942 13.3636ZM24.48 10.56H8.16V12.56H24.48V10.56ZM8.89042 12.243L14.6504 6.08299L13.1896 4.717L7.42958 10.877L8.89042 12.243ZM12.92 5.4V37.16H14.92V5.4H12.92ZM48.9369 57L48.0235 56.5929L47.3963 58H48.9369V57ZM73.8969 0.999996V-3.8147e-06H73.2478L72.9835 0.59289L73.8969 0.999996ZM86.6969 0.999996L87.6098 0.591803L87.3451 -3.8147e-06H86.6969V0.999996ZM111.737 57V58H113.279L112.65 56.5918L111.737 57ZM98.1369 57L97.213 57.3827L97.4687 58H98.1369V57ZM77.6569 7.56V6.56H76.1602L76.733 7.9427L77.6569 7.56ZM82.7769 7.56L83.7002 7.94398L84.2758 6.56H82.7769V7.56ZM62.2169 57V58H62.884L63.1402 57.384L62.2169 57ZM61.4169 45L60.4729 44.67L60.0079 46H61.4169V45ZM64.8569 35.16V34.16H64.1471L63.9129 34.83L64.8569 35.16ZM93.6569 35.16L94.5984 34.8232L94.3612 34.16H93.6569V35.16ZM97.1769 45V46H98.5967L98.1184 44.6632L97.1769 45ZM49.8503 57.4071L74.8103 1.4071L72.9835 0.59289L48.0235 56.5929L49.8503 57.4071ZM73.8969 2H86.6969V-3.8147e-06H73.8969V2ZM85.784 1.40819L110.824 57.4082L112.65 56.5918L87.6098 0.591803L85.784 1.40819ZM111.737 56H98.1369V58H111.737V56ZM99.0607 56.6173L78.5807 7.17729L76.733 7.9427L97.213 57.3827L99.0607 56.6173ZM77.6569 8.56H82.7769V6.56H77.6569V8.56ZM81.8535 7.17602L61.2935 56.616L63.1402 57.384L83.7002 7.94398L81.8535 7.17602ZM62.2169 56H48.9369V58H62.2169V56ZM62.3609 45.33L65.8009 35.49L63.9129 34.83L60.4729 44.67L62.3609 45.33ZM64.8569 36.16H93.6569V34.16H64.8569V36.16ZM92.7153 35.4968L96.2353 45.3368L98.1184 44.6632L94.5984 34.8232L92.7153 35.4968ZM97.1769 44H61.4169V46H97.1769V44ZM119.163 57H118.163V58H119.163V57ZM119.163 0.999996V-3.8147e-06H118.163V0.999996H119.163ZM164.363 0.999996H165.363V-3.8147e-06H164.363V0.999996ZM164.363 11.32V12.32H165.363V11.32H164.363ZM132.043 11.32V10.32H131.043V11.32H132.043ZM132.043 22.84H131.043V23.84H132.043V22.84ZM163.003 27.08L162.377 27.8597L162.383 27.8643L163.003 27.08ZM132.043 47.4H131.043V48.4H132.043V47.4ZM152.603 45.48L153.191 46.2887L153.199 46.283L153.207 46.2771L152.603 45.48ZM132.043 32.36V31.36H131.043V32.36H132.043ZM120.163 57V0.999996H118.163V57H120.163ZM119.163 2H164.363V-3.8147e-06H119.163V2ZM163.363 0.999996V11.32H165.363V0.999996H163.363ZM164.363 10.32H132.043V12.32H164.363V10.32ZM131.043 11.32V22.84H133.043V11.32H131.043ZM132.043 23.84H147.563V21.84H132.043V23.84ZM147.563 23.84C154.218 23.84 159.104 25.2316 162.377 27.8597L163.629 26.3003C159.862 23.2751 154.455 21.84 147.563 21.84V23.84ZM162.383 27.8643C165.671 30.4657 167.363 34.2567 167.363 39.4H169.363C169.363 33.77 167.482 29.3476 163.624 26.2957L162.383 27.8643ZM167.363 39.4C167.363 44.6767 165.503 48.691 161.826 51.5729L163.06 53.1471C167.276 49.8423 169.363 45.2167 169.363 39.4H167.363ZM161.826 51.5729C158.118 54.4795 152.794 56 145.723 56V58C153.052 58 158.875 56.4272 163.06 53.1471L161.826 51.5729ZM145.723 56H119.163V58H145.723V56ZM132.043 48.4H145.003V46.4H132.043V48.4ZM145.003 48.4C148.418 48.4 151.192 47.7425 153.191 46.2887L152.015 44.6713C150.494 45.7775 148.202 46.4 145.003 46.4V48.4ZM153.207 46.2771C155.253 44.7273 156.243 42.4914 156.243 39.72H154.243C154.243 41.9619 153.474 43.566 151.999 44.6829L153.207 46.2771ZM156.243 39.72C156.243 37.0063 155.281 34.8358 153.267 33.388C151.313 31.9841 148.506 31.36 145.003 31.36V33.36C148.327 33.36 150.639 33.9626 152.099 35.012C153.499 36.0176 154.243 37.527 154.243 39.72H156.243ZM145.003 31.36H132.043V33.36H145.003V31.36ZM131.043 32.36V47.4H133.043V32.36H131.043ZM192.706 55.8L192.346 56.733L192.35 56.7347L192.706 55.8ZM182.946 49.72L182.253 50.4411L182.26 50.4478L182.946 49.72ZM176.546 40.52L175.625 40.9106L175.63 40.9223L176.546 40.52ZM176.546 17.48L175.63 17.0777L175.625 17.0894L176.546 17.48ZM183.026 8.28L182.34 7.55221L183.026 8.28ZM192.786 2.2L192.426 1.26699L192.786 2.2ZM217.106 2.2L216.741 3.13125L216.746 3.133L217.106 2.2ZM226.786 8.28L226.093 9.00114L226.1 9.00779L226.786 8.28ZM233.266 17.48L232.35 17.8823L232.352 17.8874L233.266 17.48ZM233.266 40.6L234.181 41.0023L234.183 40.9972L233.266 40.6ZM226.786 49.8L227.471 50.5282L227.471 50.5278L226.786 49.8ZM217.106 55.8L216.746 54.867L216.741 54.8688L217.106 55.8ZM211.826 45.64L211.454 44.7115L211.446 44.7148L211.826 45.64ZM217.426 41.96L216.719 41.2529L217.426 41.96ZM221.106 36.28L220.182 35.897L220.178 35.9067L220.174 35.9165L221.106 36.28ZM221.106 21.72L220.174 22.0835L220.178 22.0933L220.182 22.103L221.106 21.72ZM217.426 16.04L216.707 16.735L216.713 16.7411L216.719 16.7471L217.426 16.04ZM211.906 12.36L211.534 13.2885L211.906 12.36ZM197.986 12.36L197.614 11.4315L197.606 11.4348L197.986 12.36ZM192.466 16.04L193.173 16.7471L192.466 16.04ZM188.706 21.72L187.782 21.337L187.778 21.3467L187.774 21.3565L188.706 21.72ZM188.706 36.28L187.771 36.636L187.776 36.6496L187.782 36.663L188.706 36.28ZM192.386 41.96L191.667 42.655L191.673 42.6611L191.679 42.6671L192.386 41.96ZM197.986 45.64L198.357 44.7115L197.986 45.64ZM205.026 56.96C200.709 56.96 196.724 56.2583 193.061 54.8653L192.35 56.7347C196.26 58.2217 200.489 58.96 205.026 58.96V56.96ZM193.065 54.867C189.447 53.4713 186.306 51.5123 183.631 48.9922L182.26 50.4478C185.132 53.1544 188.498 55.2487 192.346 56.733L193.065 54.867ZM183.638 48.9989C181.015 46.478 178.956 43.5203 177.461 40.1177L175.63 40.9223C177.228 44.5597 179.437 47.7353 182.253 50.4411L183.638 48.9989ZM177.466 40.1294C176.03 36.7435 175.306 33.0377 175.306 29H173.306C173.306 33.2823 174.075 37.2565 175.625 40.9105L177.466 40.1294ZM175.306 29C175.306 24.9623 176.03 21.2565 177.466 17.8705L175.625 17.0894C174.075 20.7435 173.306 24.7177 173.306 29H175.306ZM177.461 17.8823C178.954 14.484 181.037 11.5283 183.711 9.00779L182.34 7.55221C179.468 10.2584 177.23 13.436 175.63 17.0777L177.461 17.8823ZM183.711 9.00779C186.386 6.48774 189.527 4.52873 193.145 3.133L192.426 1.26699C188.578 2.75126 185.212 4.84558 182.34 7.55221L183.711 9.00779ZM193.145 3.133C196.754 1.74123 200.684 1.04 204.946 1.04V-0.960001C200.461 -0.960001 196.284 -0.221235 192.426 1.26699L193.145 3.133ZM204.946 1.04C209.263 1.04 213.19 1.74182 216.741 3.13124L217.47 1.26875C213.661 -0.221821 209.482 -0.960001 204.946 -0.960001V1.04ZM216.746 3.133C220.363 4.52814 223.474 6.48533 226.093 9.0011L227.478 7.5589C224.657 4.84799 221.315 2.75186 217.465 1.26699L216.746 3.133ZM226.1 9.00779C228.775 11.5283 230.857 14.484 232.35 17.8823L234.181 17.0777C232.581 13.436 230.343 10.2584 227.471 7.55221L226.1 9.00779ZM232.352 17.8874C233.836 21.2124 234.586 24.9115 234.586 29H236.586C236.586 24.6618 235.789 20.6809 234.179 17.0726L232.352 17.8874ZM234.586 29C234.586 33.0328 233.837 36.7633 232.348 40.2028L234.183 40.9972C235.788 37.2901 236.586 33.2872 236.586 29H234.586ZM232.35 40.1977C230.857 43.596 228.775 46.5517 226.1 49.0722L227.471 50.5278C230.343 47.8216 232.581 44.644 234.181 41.0023L232.35 40.1977ZM226.1 49.0718C223.481 51.5369 220.367 53.4702 216.746 54.867L217.465 56.733C221.311 55.2498 224.65 53.1831 227.471 50.5282L226.1 49.0718ZM216.741 54.8688C213.189 56.2587 209.288 56.96 205.026 56.96V58.96C209.51 58.96 213.662 58.2213 217.47 56.7312L216.741 54.8688ZM204.946 47.92C207.568 47.92 209.992 47.4733 212.205 46.5652L211.446 44.7148C209.5 45.5134 207.337 45.92 204.946 45.92V47.92ZM212.197 46.5685C214.454 45.6656 216.435 44.3644 218.133 42.6671L216.719 41.2529C215.216 42.7556 213.464 43.9077 211.454 44.7115L212.197 46.5685ZM218.133 42.6671C219.834 40.9657 221.136 38.9541 222.037 36.6435L220.174 35.9165C219.369 37.9792 218.217 39.7543 216.719 41.2529L218.133 42.6671ZM222.029 36.663C222.992 34.3405 223.466 31.7815 223.466 29H221.466C221.466 31.5518 221.032 33.8462 220.182 35.897L222.029 36.663ZM223.466 29C223.466 26.2185 222.992 23.6595 222.029 21.337L220.182 22.103C221.032 24.1538 221.466 26.4482 221.466 29H223.466ZM222.037 21.3565C221.136 19.0459 219.834 17.0343 218.133 15.3329L216.719 16.7471C218.217 18.2457 219.369 20.0208 220.174 22.0835L222.037 21.3565ZM218.145 15.345C216.497 13.6402 214.537 12.3355 212.277 11.4315L211.534 13.2885C213.541 14.0911 215.261 15.2398 216.707 16.735L218.145 15.345ZM212.277 11.4315C210.015 10.5268 207.568 10.08 204.946 10.08V12.08C207.337 12.08 209.529 12.4865 211.534 13.2885L212.277 11.4315ZM204.946 10.08C202.323 10.08 199.876 10.5268 197.614 11.4315L198.357 13.2885C200.362 12.4865 202.555 12.08 204.946 12.08V10.08ZM197.606 11.4348C195.403 12.3388 193.452 13.6398 191.759 15.3329L193.173 16.7471C194.68 15.2401 196.409 14.0879 198.365 13.2852L197.606 11.4348ZM191.759 15.3329C190.061 17.0299 188.736 19.0348 187.782 21.337L189.629 22.103C190.488 20.0318 191.67 18.2501 193.173 16.7471L191.759 15.3329ZM187.774 21.3565C186.87 23.6737 186.426 26.2257 186.426 29H188.426C188.426 26.4409 188.835 24.1397 189.637 22.0835L187.774 21.3565ZM186.426 29C186.426 31.724 186.871 34.2725 187.771 36.636L189.64 35.924C188.834 33.8075 188.426 31.5027 188.426 29H186.426ZM187.782 36.663C188.734 38.9581 190.027 40.9592 191.667 42.655L193.105 41.265C191.651 39.7608 190.491 37.9752 189.629 35.897L187.782 36.663ZM191.679 42.6671C193.376 44.3644 195.357 45.6656 197.614 46.5685L198.357 44.7115C196.347 43.9077 194.595 42.7556 193.093 41.2529L191.679 42.6671ZM197.614 46.5685C199.876 47.4732 202.323 47.92 204.946 47.92V45.92C202.555 45.92 200.362 45.5135 198.357 44.7115L197.614 46.5685ZM256.868 57H255.868V58H256.868V57ZM256.868 8.6L257.575 7.89289L255.868 6.18579V8.6H256.868ZM259.828 11.56V12.56H262.242L260.535 10.8529L259.828 11.56ZM239.028 11.56H238.028V12.56H239.028V11.56ZM239.028 0.999996V-3.8147e-06H238.028V0.999996H239.028ZM287.588 0.999996H288.588V-3.8147e-06H287.588V0.999996ZM287.588 11.56V12.56H288.588V11.56H287.588ZM266.788 11.56L266.071 10.8626L264.42 12.56H266.788V11.56ZM269.668 8.6H270.668V6.13823L268.951 7.90265L269.668 8.6ZM269.668 57V58H270.668V57H269.668ZM257.868 57V8.6H255.868V57H257.868ZM256.161 9.30711L259.121 12.2671L260.535 10.8529L257.575 7.89289L256.161 9.30711ZM259.828 10.56H239.028V12.56H259.828V10.56ZM240.028 11.56V0.999996H238.028V11.56H240.028ZM239.028 2H287.588V-3.8147e-06H239.028V2ZM286.588 0.999996V11.56H288.588V0.999996H286.588ZM287.588 10.56H266.788V12.56H287.588V10.56ZM267.505 12.2574L270.385 9.29735L268.951 7.90265L266.071 10.8626L267.505 12.2574ZM268.668 8.6V57H270.668V8.6H268.668ZM269.668 56H256.868V58H269.668V56ZM286.593 57L285.68 56.5929L285.053 58H286.593V57ZM311.553 0.999996V-3.8147e-06H310.904L310.64 0.59289L311.553 0.999996ZM324.353 0.999996L325.266 0.591803L325.001 -3.8147e-06H324.353V0.999996ZM349.393 57V58H350.936L350.306 56.5918L349.393 57ZM335.793 57L334.869 57.3827L335.125 58H335.793V57ZM315.313 7.56V6.56H313.816L314.389 7.9427L315.313 7.56ZM320.433 7.56L321.356 7.94398L321.932 6.56H320.433V7.56ZM299.873 57V58H300.54L300.796 57.384L299.873 57ZM299.073 45L298.129 44.67L297.664 46H299.073V45ZM302.513 35.16V34.16H301.803L301.569 34.83L302.513 35.16ZM331.313 35.16L332.255 34.8232L332.017 34.16H331.313V35.16ZM334.833 45V46H336.253L335.775 44.6632L334.833 45ZM287.507 57.4071L312.467 1.4071L310.64 0.59289L285.68 56.5929L287.507 57.4071ZM311.553 2H324.353V-3.8147e-06H311.553V2ZM323.44 1.40819L348.48 57.4082L350.306 56.5918L325.266 0.591803L323.44 1.40819ZM349.393 56H335.793V58H349.393V56ZM336.717 56.6173L316.237 7.17729L314.389 7.9427L334.869 57.3827L336.717 56.6173ZM315.313 8.56H320.433V6.56H315.313V8.56ZM319.51 7.17602L298.95 56.616L300.796 57.384L321.356 7.94398L319.51 7.17602ZM299.873 56H286.593V58H299.873V56ZM300.017 45.33L303.457 35.49L301.569 34.83L298.129 44.67L300.017 45.33ZM302.513 36.16H331.313V34.16H302.513V36.16ZM330.372 35.4968L333.892 45.3368L335.775 44.6632L332.255 34.8232L330.372 35.4968ZM334.833 44H299.073V46H334.833V44ZM393.876 55.88L393.511 56.8112L393.519 56.8144L393.527 56.8174L393.876 55.88ZM384.276 49.8L383.583 50.5211L384.276 49.8ZM377.876 40.6L376.955 40.9906L376.96 41.0023L377.876 40.6ZM377.876 17.4L376.96 16.9977L376.955 17.0094L377.876 17.4ZM384.276 8.2L383.59 7.47218L383.583 7.47889L384.276 8.2ZM393.956 2.2L394.308 3.13584L394.32 3.13124L393.956 2.2ZM419.156 2.6L418.754 3.51587L418.762 3.51917L418.769 3.52234L419.156 2.6ZM429.076 9.96L429.754 10.6948L430.447 10.0553L429.849 9.32607L429.076 9.96ZM420.756 17.64L420.004 18.2998L420.681 19.0702L421.434 18.3748L420.756 17.64ZM414.356 12.76L413.925 13.6625L413.933 13.6665L413.942 13.6704L414.356 12.76ZM393.796 16.04L394.503 16.7471L393.796 16.04ZM390.036 21.72L389.112 21.337L389.108 21.3467L389.104 21.3565L390.036 21.72ZM390.036 36.28L389.104 36.6435L389.108 36.6533L389.112 36.663L390.036 36.28ZM393.796 41.96L393.089 42.6671L393.796 41.96ZM414.356 45.32L414.769 46.2304L414.778 46.2265L414.786 46.2225L414.356 45.32ZM420.756 40.28L421.434 39.5452L420.672 38.8415L419.996 39.6292L420.756 40.28ZM429.076 47.96L429.849 48.5939L430.447 47.8647L429.754 47.2252L429.076 47.96ZM419.156 55.4L418.759 54.4821L418.754 54.4841L419.156 55.4ZM405.956 56.96C401.744 56.96 397.837 56.2845 394.224 54.9426L393.527 56.8174C397.381 58.2489 401.527 58.96 405.956 58.96V56.96ZM394.24 54.9488C390.676 53.5543 387.589 51.597 384.968 49.0789L383.583 50.5211C386.402 53.2297 389.715 55.3257 393.511 56.8112L394.24 54.9488ZM384.968 49.0789C382.345 46.558 380.286 43.6003 378.791 40.1977L376.96 41.0023C378.558 44.6397 380.767 47.8153 383.583 50.5211L384.968 49.0789ZM378.796 40.2094C377.36 36.825 376.636 33.0929 376.636 29H374.636C374.636 33.3338 375.404 37.335 376.955 40.9905L378.796 40.2094ZM376.636 29C376.636 24.9071 377.36 21.175 378.796 17.7905L376.955 17.0094C375.404 20.665 374.636 24.6662 374.636 29H376.636ZM378.791 17.8023C380.286 14.3997 382.345 11.442 384.968 8.9211L383.583 7.47889C380.767 10.1847 378.558 13.3603 376.96 16.9977L378.791 17.8023ZM384.961 8.92779C387.635 6.40804 390.748 4.47734 394.308 3.13577L393.603 1.26423C389.803 2.69599 386.462 4.76529 383.59 7.47221L384.961 8.92779ZM394.32 3.13124C397.872 1.74128 401.774 1.04 406.036 1.04V-0.960001C401.551 -0.960001 397.399 -0.221287 393.591 1.26875L394.32 3.13124ZM406.036 1.04C410.77 1.04 415.004 1.87202 418.754 3.51587L419.557 1.68413C415.52 -0.0853519 411.008 -0.960001 406.036 -0.960001V1.04ZM418.769 3.52234C422.568 5.1137 425.741 7.46913 428.302 10.5939L429.849 9.32607C427.077 5.9442 423.637 3.39296 419.542 1.67766L418.769 3.52234ZM428.397 9.2252L420.077 16.9052L421.434 18.3748L429.754 10.6948L428.397 9.2252ZM421.507 16.9802C419.506 14.7008 417.261 12.9821 414.769 11.8496L413.942 13.6704C416.144 14.6713 418.166 16.2059 420.004 18.2998L421.507 16.9802ZM414.786 11.8575C412.296 10.6691 409.588 10.08 406.676 10.08V12.08C409.31 12.08 411.722 12.6109 413.925 13.6625L414.786 11.8575ZM406.676 10.08C403.952 10.08 401.427 10.525 399.112 11.4284L399.839 13.2916C401.898 12.4883 404.173 12.08 406.676 12.08V10.08ZM399.112 11.4284C396.802 12.3301 394.79 13.6315 393.089 15.3329L394.503 16.7471C396.001 15.2485 397.776 14.0966 399.839 13.2916L399.112 11.4284ZM393.089 15.3329C391.391 17.0299 390.066 19.0348 389.112 21.337L390.959 22.103C391.818 20.0318 393 18.2501 394.503 16.7471L393.089 15.3329ZM389.104 21.3565C388.2 23.6737 387.756 26.2257 387.756 29H389.756C389.756 26.4409 390.165 24.1397 390.967 22.0835L389.104 21.3565ZM387.756 29C387.756 31.7743 388.2 34.3263 389.104 36.6435L390.967 35.9165C390.165 33.8603 389.756 31.5591 389.756 29H387.756ZM389.112 36.663C390.066 38.9652 391.391 40.9701 393.089 42.6671L394.503 41.2529C393 39.7499 391.818 37.9681 390.959 35.897L389.112 36.663ZM393.089 42.6671C394.79 44.3685 396.802 45.6699 399.112 46.5716L399.839 44.7084C397.776 43.9034 396.001 42.7514 394.503 41.2529L393.089 42.6671ZM399.112 46.5716C401.427 47.475 403.952 47.92 406.676 47.92V45.92C404.173 45.92 401.898 45.5117 399.839 44.7084L399.112 46.5716ZM406.676 47.92C409.581 47.92 412.283 47.3605 414.769 46.2304L413.942 44.4096C411.735 45.4128 409.317 45.92 406.676 45.92V47.92ZM414.786 46.2225C417.275 45.0348 419.516 43.2624 421.515 40.9308L419.996 39.6292C418.155 41.7776 416.13 43.3652 413.925 44.4175L414.786 46.2225ZM420.077 41.0148L428.397 48.6948L429.754 47.2252L421.434 39.5452L420.077 41.0148ZM428.302 47.3261C425.739 50.4533 422.562 52.8373 418.759 54.4821L419.553 56.3179C423.642 54.5494 427.079 51.9734 429.849 48.5939L428.302 47.3261ZM418.754 54.4841C415.005 56.1274 410.745 56.96 405.956 56.96V58.96C410.979 58.96 415.519 58.0859 419.557 56.3159L418.754 54.4841ZM498.579 0.999996V-3.8147e-06H497.579V0.999996H498.579ZM511.539 0.999996H512.539V-3.8147e-06H511.539V0.999996ZM511.539 57V58H512.539V57H511.539ZM498.579 57H497.579V58H498.579V57ZM473.139 57V58H474.139V57H473.139ZM460.179 57H459.179V58H460.179V57ZM460.179 0.999996V-3.8147e-06H459.179V0.999996H460.179ZM473.139 0.999996H474.139V-3.8147e-06H473.139V0.999996ZM499.539 34.04V35.04H500.539V34.04H499.539ZM472.179 34.04H471.179V35.04H472.179V34.04ZM472.179 23.08V22.08H471.179V23.08H472.179ZM499.539 23.08H500.539V22.08H499.539V23.08ZM498.579 2H511.539V-3.8147e-06H498.579V2ZM510.539 0.999996V57H512.539V0.999996H510.539ZM511.539 56H498.579V58H511.539V56ZM499.579 57V0.999996H497.579V57H499.579ZM473.139 56H460.179V58H473.139V56ZM461.179 57V0.999996H459.179V57H461.179ZM460.179 2H473.139V-3.8147e-06H460.179V2ZM472.139 0.999996V57H474.139V0.999996H472.139ZM499.539 33.04H472.179V35.04H499.539V33.04ZM473.179 34.04V23.08H471.179V34.04H473.179ZM472.179 24.08H499.539V22.08H472.179V24.08ZM498.539 23.08V34.04H500.539V23.08H498.539ZM519.249 57L518.336 56.5929L517.709 58H519.249V57ZM544.209 0.999996V-3.8147e-06H543.56L543.296 0.59289L544.209 0.999996ZM557.009 0.999996L557.922 0.591803L557.658 -3.8147e-06H557.009V0.999996ZM582.049 57V58H583.592L582.962 56.5918L582.049 57ZM568.449 57L567.526 57.3827L567.781 58H568.449V57ZM547.969 7.56V6.56H546.473L547.046 7.9427L547.969 7.56ZM553.089 7.56L554.013 7.94398L554.588 6.56H553.089V7.56ZM532.529 57V58H533.197L533.453 57.384L532.529 57ZM531.729 45L530.785 44.67L530.32 46H531.729V45ZM535.169 35.16V34.16H534.46L534.225 34.83L535.169 35.16ZM563.969 35.16L564.911 34.8232L564.674 34.16H563.969V35.16ZM567.489 45V46H568.909L568.431 44.6632L567.489 45ZM520.163 57.4071L545.123 1.4071L543.296 0.59289L518.336 56.5929L520.163 57.4071ZM544.209 2H557.009V-3.8147e-06H544.209V2ZM556.096 1.40819L581.136 57.4082L582.962 56.5918L557.922 0.591803L556.096 1.40819ZM582.049 56H568.449V58H582.049V56ZM569.373 56.6173L548.893 7.17729L547.046 7.9427L567.526 57.3827L569.373 56.6173ZM547.969 8.56H553.089V6.56H547.969V8.56ZM552.166 7.17602L531.606 56.616L533.453 57.384L554.013 7.94398L552.166 7.17602ZM532.529 56H519.249V58H532.529V56ZM532.673 45.33L536.113 35.49L534.225 34.83L530.785 44.67L532.673 45.33ZM535.169 36.16H563.969V34.16H535.169V36.16ZM563.028 35.4968L566.548 45.3368L568.431 44.6632L564.911 34.8232L563.028 35.4968ZM567.489 44H531.729V46H567.489V44ZM589.476 57H588.476V58H589.476V57ZM589.476 0.999996V-3.8147e-06H588.476V0.999996H589.476ZM600.196 0.999996L601.052 0.483463L600.76 -3.8147e-06H600.196V0.999996ZM624.036 40.52V41.52H625.807L624.892 40.0035L624.036 40.52ZM618.356 40.52L617.496 40.0099L616.6 41.52H618.356V40.52ZM641.796 0.999996V-3.8147e-06H641.226L640.936 0.489861L641.796 0.999996ZM652.516 0.999996L653.516 0.998568L653.514 -3.8147e-06H652.516V0.999996ZM652.596 57V58H653.597L653.596 56.9986L652.596 57ZM640.436 57L639.436 57.0021L639.438 58H640.436V57ZM640.356 19.64V18.64H639.354L639.356 19.6421L640.356 19.64ZM642.676 19.64L643.534 20.1532L644.439 18.64H642.676V19.64ZM623.876 51.08V52.08H624.443L624.734 51.5932L623.876 51.08ZM618.116 51.08L617.262 51.6012L617.555 52.08H618.116V51.08ZM598.916 19.64V18.64H597.133L598.062 20.1612L598.916 19.64ZM601.636 19.64H602.636V18.64H601.636V19.64ZM601.636 57V58H602.636V57H601.636ZM590.476 57V0.999996H588.476V57H590.476ZM589.476 2H600.196V-3.8147e-06H589.476V2ZM599.339 1.51653L623.179 41.0365L624.892 40.0035L601.052 0.483463L599.339 1.51653ZM624.036 39.52H618.356V41.52H624.036V39.52ZM619.216 41.0301L642.656 1.51013L640.936 0.489861L617.496 40.0099L619.216 41.0301ZM641.796 2H652.516V-3.8147e-06H641.796V2ZM651.516 1.00142L651.596 57.0014L653.596 56.9986L653.516 0.998568L651.516 1.00142ZM652.596 56H640.436V58H652.596V56ZM641.436 56.9979L641.356 19.6379L639.356 19.6421L639.436 57.0021L641.436 56.9979ZM640.356 20.64H642.676V18.64H640.356V20.64ZM641.817 19.1268L623.017 50.5668L624.734 51.5932L643.534 20.1532L641.817 19.1268ZM623.876 50.08H618.116V52.08H623.876V50.08ZM618.969 50.5588L599.769 19.1188L598.062 20.1612L617.262 51.6012L618.969 50.5588ZM598.916 20.64H601.636V18.64H598.916V20.64ZM600.636 19.64V57H602.636V19.64H600.636ZM601.636 56H589.476V58H601.636V56ZM666.507 57H665.507V58H666.507V57ZM666.507 0.999996V-3.8147e-06H665.507V0.999996H666.507ZM679.387 0.999996H680.387V-3.8147e-06H679.387V0.999996ZM679.387 37.48H678.387V40.5376L680.194 38.0709L679.387 37.48ZM706.107 0.999996V-3.8147e-06H705.6L705.3 0.409092L706.107 0.999996ZM718.267 0.999996H719.267V-3.8147e-06H718.267V0.999996ZM718.267 57V58H719.267V57H718.267ZM705.467 57H704.467V58H705.467V57ZM705.467 20.6H706.467V17.5478L704.661 20.0083L705.467 20.6ZM678.747 57V58H679.253L679.553 57.5918L678.747 57ZM667.507 57V0.999996H665.507V57H667.507ZM666.507 2H679.387V-3.8147e-06H666.507V2ZM678.387 0.999996V37.48H680.387V0.999996H678.387ZM680.194 38.0709L706.914 1.5909L705.3 0.409092L678.58 36.8891L680.194 38.0709ZM706.107 2H718.267V-3.8147e-06H706.107V2ZM717.267 0.999996V57H719.267V0.999996H717.267ZM718.267 56H705.467V58H718.267V56ZM706.467 57V20.6H704.467V57H706.467ZM704.661 20.0083L677.941 56.4082L679.553 57.5918L706.273 21.1917L704.661 20.0083ZM678.747 56H666.507V58H678.747V56Z" fill="white" mask="url(#path-1-outside-1_164_433)"/>
</svg>
